<svg width="105" height="105" viewBox="0 0 105 105" fill="none" xmlns="http://www.w3.org/2000/svg">
<path d="M52.5 26.25L47.8078 30.8208L66.1172 49.2188H26.25V55.7812H66.1172L47.8078 74.0677L52.5 78.75L78.75 52.5L52.5 26.25Z" fill="#E7E2DA"/>
<path d="M52.5 98.4375C43.4144 98.4375 34.5329 95.7433 26.9785 90.6956C19.4241 85.648 13.5362 78.4735 10.0593 70.0795C6.5824 61.6856 5.67269 52.4491 7.4452 43.5381C9.21771 34.6271 13.5928 26.4418 20.0173 20.0173C26.4418 13.5928 34.6271 9.21771 43.5381 7.4452C52.4491 5.67269 61.6856 6.5824 70.0795 10.0593C78.4735 13.5362 85.648 19.4241 90.6956 26.9785C95.7433 34.5329 98.4375 43.4144 98.4375 52.5C98.4238 64.6792 93.5796 76.3556 84.9676 84.9676C76.3556 93.5796 64.6792 98.4238 52.5 98.4375ZM52.5 13.125C44.7124 13.125 37.0996 15.4343 30.6244 19.7609C24.1493 24.0875 19.1025 30.237 16.1223 37.4319C13.1421 44.6267 12.3623 52.5437 13.8816 60.1817C15.4009 67.8197 19.151 74.8356 24.6577 80.3423C30.1644 85.849 37.1803 89.5991 44.8183 91.1184C52.4563 92.6377 60.3733 91.858 67.5682 88.8778C74.763 85.8976 80.9125 80.8508 85.2391 74.3756C89.5657 67.9004 91.875 60.2877 91.875 52.5C91.8631 42.0608 87.7109 32.0525 80.3292 24.6708C72.9475 17.2892 62.9393 13.1369 52.5 13.125Z" fill="#E7E2DA"/>
</svg>
